<svg width="349" height="256" viewBox="0 0 349 256" fill="none" xmlns="http://www.w3.org/2000/svg">
<path d="M166.915 252.765C163.585 252.765 161.125 252.15 159.535 250.92C157.975 249.69 157.195 248.175 157.195 246.375C157.195 245.235 157.48 244.26 158.05 243.45C158.62 242.64 159.37 242.025 160.3 241.605C161.23 241.185 162.205 240.975 163.225 240.975C165.205 240.975 166.825 241.665 168.085 243.045C169.375 244.395 170.14 246.12 170.38 248.22C171.82 247.74 173.035 246.93 174.025 245.79C175.015 244.62 175.51 243.135 175.51 241.335C175.51 239.955 175.18 238.74 174.52 237.69C173.89 236.64 173.005 235.815 171.865 235.215C170.725 234.615 169.405 234.315 167.905 234.315C163.975 234.315 160.705 235.44 158.095 237.69C157.555 238.17 156.835 238.785 155.935 239.535C155.035 240.255 154.195 240.9 153.415 241.47L150.625 238.455C152.035 237.615 153.55 236.535 155.17 235.215C156.79 233.895 158.395 232.44 159.985 230.85C161.605 229.26 163.135 227.625 164.575 225.945C166.015 224.265 167.275 222.63 168.355 221.04C167.095 221.34 165.655 221.64 164.035 221.94C162.415 222.21 160.825 222.45 159.265 222.66C157.735 222.84 156.43 222.96 155.35 223.02L154.63 219.06C155.44 219.09 156.445 219.075 157.645 219.015C158.875 218.925 160.165 218.805 161.515 218.655C162.895 218.505 164.23 218.34 165.52 218.16C166.84 217.95 168.01 217.725 169.03 217.485C170.08 217.245 170.845 217.02 171.325 216.81L174.43 218.925C173.74 220.275 172.84 221.715 171.73 223.245C170.65 224.745 169.45 226.26 168.13 227.79C166.81 229.32 165.445 230.79 164.035 232.2C164.725 231.87 165.49 231.6 166.33 231.39C167.17 231.18 167.98 231.075 168.76 231.075C170.95 231.075 172.87 231.51 174.52 232.38C176.17 233.25 177.46 234.45 178.39 235.98C179.35 237.51 179.83 239.295 179.83 241.335C179.83 243.525 179.275 245.49 178.165 247.23C177.085 248.94 175.57 250.29 173.62 251.28C171.7 252.27 169.465 252.765 166.915 252.765ZM166.15 248.94H166.69C166.6 247.62 166.24 246.54 165.61 245.7C164.98 244.86 164.185 244.44 163.225 244.44C162.595 244.44 162.07 244.605 161.65 244.935C161.26 245.235 161.065 245.685 161.065 246.285C161.065 247.035 161.455 247.65 162.235 248.13C163.015 248.61 164.32 248.88 166.15 248.94Z" fill="#88646A"/>
<path d="M117.685 254.34C115.525 254.28 113.845 253.665 112.645 252.495C111.475 251.355 110.905 249.96 110.935 248.31C110.965 247.29 111.28 246.345 111.88 245.475C112.51 244.605 113.41 243.915 114.58 243.405C115.78 242.895 117.22 242.67 118.9 242.73C119.44 242.76 119.98 242.805 120.52 242.865C121.06 242.895 121.585 242.955 122.095 243.045V231.975H126.01V244.035C127.78 244.605 129.46 245.34 131.05 246.24C132.64 247.14 134.125 248.13 135.505 249.21C135.085 249.6 134.635 250.155 134.155 250.875C133.705 251.595 133.375 252.21 133.165 252.72C130.945 250.77 128.56 249.195 126.01 247.995C125.95 250.185 125.2 251.805 123.76 252.855C122.32 253.935 120.295 254.43 117.685 254.34ZM105.13 246.24C104.92 246.06 104.605 245.835 104.185 245.565C103.765 245.265 103.315 244.98 102.835 244.71C102.385 244.44 101.995 244.245 101.665 244.125C103.555 241.995 105.265 239.46 106.795 236.52C108.325 233.58 109.585 230.505 110.575 227.295C108.895 227.565 107.32 227.805 105.85 228.015C104.41 228.195 103.27 228.315 102.43 228.375L101.845 224.46C102.955 224.43 104.38 224.34 106.12 224.19C107.86 224.01 109.69 223.77 111.61 223.47C111.94 222.03 112.195 220.605 112.375 219.195C112.585 217.785 112.705 216.405 112.735 215.055L116.65 215.55C116.53 216.75 116.38 217.965 116.2 219.195C116.05 220.395 115.855 221.58 115.615 222.75C116.815 222.51 117.955 222.27 119.035 222.03C120.115 221.79 121.06 221.55 121.87 221.31L122.365 225.045C121.435 225.285 120.295 225.555 118.945 225.855C117.625 226.125 116.215 226.38 114.715 226.62C113.695 230.34 112.36 233.88 110.71 237.24C109.09 240.57 107.23 243.57 105.13 246.24ZM134.245 232.335C133.615 231.645 132.73 230.895 131.59 230.085C130.48 229.245 129.31 228.465 128.08 227.745C126.88 227.025 125.83 226.5 124.93 226.17L127 223.11C127.69 223.38 128.485 223.755 129.385 224.235C130.285 224.715 131.2 225.255 132.13 225.855C133.09 226.425 133.975 227.01 134.785 227.61C135.595 228.21 136.255 228.75 136.765 229.23L134.245 232.335ZM117.955 250.83C119.275 250.83 120.295 250.545 121.015 249.975C121.735 249.375 122.095 248.43 122.095 247.14V246.6C120.985 246.36 119.83 246.21 118.63 246.15C117.43 246.12 116.485 246.33 115.795 246.78C115.105 247.2 114.745 247.755 114.715 248.445C114.685 249.135 114.94 249.705 115.48 250.155C116.05 250.605 116.875 250.83 117.955 250.83Z" fill="#88646A"/>
<path d="M85.735 251.775C83.035 252.255 80.41 252.585 77.86 252.765C75.31 252.945 72.925 252.93 70.705 252.72C68.485 252.51 66.535 252.075 64.855 251.415C63.175 250.725 61.855 249.765 60.895 248.535C59.965 247.305 59.5 245.745 59.5 243.855C59.5 241.455 60.43 239.37 62.29 237.6C64.18 235.83 66.67 234.3 69.76 233.01C68.95 231.21 68.365 228.87 68.005 225.99C67.645 223.08 67.525 219.72 67.645 215.91H72.145C71.965 217.68 71.89 219.555 71.92 221.535C71.98 223.485 72.145 225.345 72.415 227.115C72.685 228.855 73.045 230.34 73.495 231.57C74.995 231.06 76.555 230.58 78.175 230.13C79.825 229.65 81.505 229.2 83.215 228.78L84.16 233.1C81.46 233.46 78.88 234 76.42 234.72C73.96 235.41 71.785 236.235 69.895 237.195C68.005 238.125 66.505 239.145 65.395 240.255C64.315 241.365 63.775 242.49 63.775 243.63C63.775 245.04 64.375 246.165 65.575 247.005C66.805 247.815 68.47 248.355 70.57 248.625C72.7 248.895 75.115 248.91 77.815 248.67C80.545 248.43 83.41 247.95 86.41 247.23C86.2 247.8 86.035 248.55 85.915 249.48C85.795 250.38 85.735 251.145 85.735 251.775Z" fill="#88646A"/>
<path d="M44.65 255.55C40.5167 253.15 37.1667 249.967 34.6 246C32.0334 242 30.4334 237.633 29.8 232.9H26.55V248.7C28.0834 248.333 29.5334 247.983 30.9 247.65C32.2667 247.283 33.3667 246.95 34.2 246.65V250.9C33.3334 251.2 32.1834 251.55 30.75 251.95C29.3167 252.35 27.7834 252.767 26.15 253.2C24.5167 253.633 22.9334 254.017 21.4 254.35C19.9 254.717 18.65 255 17.65 255.2L16.65 250.7C17.2834 250.633 18.0667 250.517 19 250.35C19.9667 250.15 21.0167 249.933 22.15 249.7V211.95H42.85V232.9H33.75C34.15 235.333 34.8834 237.617 35.95 239.75C37.2167 238.983 38.5334 238.067 39.9 237C41.3 235.933 42.4167 234.983 43.25 234.15L46.1 237.5C45.1 238.4 43.85 239.367 42.35 240.4C40.85 241.433 39.4 242.367 38 243.2C40.5334 246.7 43.8 249.6 47.8 251.9C47.5 252.067 47.1334 252.367 46.7 252.8C46.3 253.267 45.9167 253.75 45.55 254.25C45.1834 254.75 44.8834 255.183 44.65 255.55ZM9.30003 255.65V234.45C8.46669 236.15 7.56669 237.783 6.60002 239.35C5.63336 240.917 4.70002 242.283 3.80002 243.45C3.56669 243.25 3.21669 243 2.75002 242.7C2.28336 242.4 1.80002 242.1 1.30002 241.8C0.833358 241.5 0.450024 241.283 0.150024 241.15C1.08336 240.083 2.01669 238.85 2.95002 237.45C3.88336 236.017 4.76669 234.517 5.60002 232.95C6.43336 231.383 7.16669 229.867 7.80003 228.4C8.46669 226.9 8.96669 225.55 9.30003 224.35V224.1H1.55002V220.05H9.30003V210.35H13.65V220.05H19.95V224.1H13.65V228.05C14.2167 228.85 14.9667 229.833 15.9 231C16.8334 232.167 17.7834 233.3 18.75 234.4C19.75 235.467 20.6 236.3 21.3 236.9C21.0667 237.067 20.7167 237.367 20.25 237.8C19.8167 238.2 19.3834 238.6 18.95 239C18.55 239.4 18.2667 239.717 18.1 239.95C17.5334 239.317 16.8334 238.5 16 237.5C15.2 236.5 14.4167 235.467 13.65 234.4V255.65H9.30003ZM26.55 229.05H38.35V224.1H26.55V229.05ZM26.55 220.6H38.35V215.85H26.55V220.6Z" fill="#88646A"/>
<path d="M162.19 184.7C161.86 184.13 161.395 183.515 160.795 182.855C160.195 182.195 159.625 181.67 159.085 181.28C163.105 179.57 166.225 177.035 168.445 173.675C170.695 170.315 171.82 166.295 171.82 161.615C171.82 159.485 171.565 157.82 171.055 156.62C170.545 155.39 169.87 154.535 169.03 154.055C168.19 153.545 167.26 153.335 166.24 153.425C165.1 153.515 164.005 154.205 162.955 155.495C161.905 156.755 161.11 158.525 160.57 160.805C160.06 163.055 159.985 165.725 160.345 168.815C160.075 168.815 159.67 168.875 159.13 168.995C158.59 169.085 158.08 169.19 157.6 169.31C157.12 169.4 156.775 169.49 156.565 169.58C156.415 168.5 156.28 167.15 156.16 165.53C156.04 163.91 155.95 162.185 155.89 160.355C155.86 158.495 155.845 156.65 155.845 154.82C155.845 152.96 155.875 151.235 155.935 149.645C155.995 148.055 156.085 146.75 156.205 145.73L160.435 146.135C160.255 146.915 160.09 147.935 159.94 149.195C159.82 150.455 159.73 151.805 159.67 153.245C159.61 154.685 159.565 156.065 159.535 157.385C160.165 155.225 161.155 153.425 162.505 151.985C163.855 150.515 165.355 149.75 167.005 149.69C168.685 149.6 170.215 149.975 171.595 150.815C172.975 151.655 174.07 152.975 174.88 154.775C175.69 156.545 176.095 158.825 176.095 161.615C176.095 167.075 174.865 171.71 172.405 175.52C169.975 179.3 166.57 182.36 162.19 184.7Z" fill="#88646A"/>
<path d="M117.685 184.34C115.525 184.28 113.845 183.665 112.645 182.495C111.475 181.355 110.905 179.96 110.935 178.31C110.965 177.29 111.28 176.345 111.88 175.475C112.51 174.605 113.41 173.915 114.58 173.405C115.78 172.895 117.22 172.67 118.9 172.73C119.44 172.76 119.98 172.805 120.52 172.865C121.06 172.895 121.585 172.955 122.095 173.045V161.975H126.01V174.035C127.78 174.605 129.46 175.34 131.05 176.24C132.64 177.14 134.125 178.13 135.505 179.21C135.085 179.6 134.635 180.155 134.155 180.875C133.705 181.595 133.375 182.21 133.165 182.72C130.945 180.77 128.56 179.195 126.01 177.995C125.95 180.185 125.2 181.805 123.76 182.855C122.32 183.935 120.295 184.43 117.685 184.34ZM105.13 176.24C104.92 176.06 104.605 175.835 104.185 175.565C103.765 175.265 103.315 174.98 102.835 174.71C102.385 174.44 101.995 174.245 101.665 174.125C103.555 171.995 105.265 169.46 106.795 166.52C108.325 163.58 109.585 160.505 110.575 157.295C108.895 157.565 107.32 157.805 105.85 158.015C104.41 158.195 103.27 158.315 102.43 158.375L101.845 154.46C102.955 154.43 104.38 154.34 106.12 154.19C107.86 154.01 109.69 153.77 111.61 153.47C111.94 152.03 112.195 150.605 112.375 149.195C112.585 147.785 112.705 146.405 112.735 145.055L116.65 145.55C116.53 146.75 116.38 147.965 116.2 149.195C116.05 150.395 115.855 151.58 115.615 152.75C116.815 152.51 117.955 152.27 119.035 152.03C120.115 151.79 121.06 151.55 121.87 151.31L122.365 155.045C121.435 155.285 120.295 155.555 118.945 155.855C117.625 156.125 116.215 156.38 114.715 156.62C113.695 160.34 112.36 163.88 110.71 167.24C109.09 170.57 107.23 173.57 105.13 176.24ZM134.245 162.335C133.615 161.645 132.73 160.895 131.59 160.085C130.48 159.245 129.31 158.465 128.08 157.745C126.88 157.025 125.83 156.5 124.93 156.17L127 153.11C127.69 153.38 128.485 153.755 129.385 154.235C130.285 154.715 131.2 155.255 132.13 155.855C133.09 156.425 133.975 157.01 134.785 157.61C135.595 158.21 136.255 158.75 136.765 159.23L134.245 162.335ZM117.955 180.83C119.275 180.83 120.295 180.545 121.015 179.975C121.735 179.375 122.095 178.43 122.095 177.14V176.6C120.985 176.36 119.83 176.21 118.63 176.15C117.43 176.12 116.485 176.33 115.795 176.78C115.105 177.2 114.745 177.755 114.715 178.445C114.685 179.135 114.94 179.705 115.48 180.155C116.05 180.605 116.875 180.83 117.955 180.83Z" fill="#88646A"/>
<path d="M85.735 181.775C83.035 182.255 80.41 182.585 77.86 182.765C75.31 182.945 72.925 182.93 70.705 182.72C68.485 182.51 66.535 182.075 64.855 181.415C63.175 180.725 61.855 179.765 60.895 178.535C59.965 177.305 59.5 175.745 59.5 173.855C59.5 171.455 60.43 169.37 62.29 167.6C64.18 165.83 66.67 164.3 69.76 163.01C68.95 161.21 68.365 158.87 68.005 155.99C67.645 153.08 67.525 149.72 67.645 145.91H72.145C71.965 147.68 71.89 149.555 71.92 151.535C71.98 153.485 72.145 155.345 72.415 157.115C72.685 158.855 73.045 160.34 73.495 161.57C74.995 161.06 76.555 160.58 78.175 160.13C79.825 159.65 81.505 159.2 83.215 158.78L84.16 163.1C81.46 163.46 78.88 164 76.42 164.72C73.96 165.41 71.785 166.235 69.895 167.195C68.005 168.125 66.505 169.145 65.395 170.255C64.315 171.365 63.775 172.49 63.775 173.63C63.775 175.04 64.375 176.165 65.575 177.005C66.805 177.815 68.47 178.355 70.57 178.625C72.7 178.895 75.115 178.91 77.815 178.67C80.545 178.43 83.41 177.95 86.41 177.23C86.2 177.8 86.035 178.55 85.915 179.48C85.795 180.38 85.735 181.145 85.735 181.775Z" fill="#88646A"/>
<path d="M34.1001 184.85C28.9667 184.85 24.5834 184.15 20.9501 182.75C17.3501 181.35 14.3 178.867 11.8 175.3C10.7 177.167 9.48338 178.883 8.15005 180.45C6.81672 182.017 5.45005 183.35 4.05005 184.45C3.71672 184.083 3.18338 183.6 2.45005 183C1.75005 182.433 1.11672 182 0.550049 181.7C2.61672 180.1 4.41672 178.25 5.95005 176.15C7.51672 174.05 8.80005 171.833 9.80005 169.5C10.8334 167.133 11.55 164.8 11.95 162.5L16.35 163.65C16.0834 164.983 15.7334 166.3 15.3 167.6C14.8667 168.867 14.3834 170.117 13.85 171.35C15.85 174.65 18.5 177 21.8001 178.4V158.95H8.65005V141.65H39.5001V158.95H26.4501V166.15H42.5501V170.4H26.4501V179.8C27.5834 180.033 28.7834 180.2 30.0501 180.3C31.3167 180.4 32.6667 180.45 34.1001 180.45C36.0667 180.45 37.75 180.417 39.1501 180.35C40.5501 180.283 41.8167 180.217 42.9501 180.15C44.1167 180.05 45.2834 179.95 46.4501 179.85C46.3167 180.15 46.1334 180.617 45.9001 181.25C45.7001 181.883 45.5001 182.517 45.3001 183.15C45.1334 183.783 45.0167 184.3 44.9501 184.7C44.3167 184.733 43.0167 184.767 41.05 184.8C39.1167 184.833 36.8001 184.85 34.1001 184.85ZM13.4 154.85H34.75V145.75H13.4V154.85Z" fill="#88646A"/>
<path d="M162.19 114.7C161.86 114.13 161.395 113.515 160.795 112.855C160.195 112.195 159.625 111.67 159.085 111.28C163.105 109.57 166.225 107.035 168.445 103.675C170.695 100.315 171.82 96.295 171.82 91.615C171.82 89.485 171.565 87.82 171.055 86.62C170.545 85.39 169.87 84.535 169.03 84.055C168.19 83.545 167.26 83.335 166.24 83.425C165.1 83.515 164.005 84.205 162.955 85.495C161.905 86.755 161.11 88.525 160.57 90.805C160.06 93.055 159.985 95.725 160.345 98.815C160.075 98.815 159.67 98.875 159.13 98.995C158.59 99.085 158.08 99.19 157.6 99.31C157.12 99.4 156.775 99.49 156.565 99.58C156.415 98.5 156.28 97.15 156.16 95.53C156.04 93.91 155.95 92.185 155.89 90.355C155.86 88.495 155.845 86.65 155.845 84.82C155.845 82.96 155.875 81.235 155.935 79.645C155.995 78.055 156.085 76.75 156.205 75.73L160.435 76.135C160.255 76.915 160.09 77.935 159.94 79.195C159.82 80.455 159.73 81.805 159.67 83.245C159.61 84.685 159.565 86.065 159.535 87.385C160.165 85.225 161.155 83.425 162.505 81.985C163.855 80.515 165.355 79.75 167.005 79.69C168.685 79.6 170.215 79.975 171.595 80.815C172.975 81.655 174.07 82.975 174.88 84.775C175.69 86.545 176.095 88.825 176.095 91.615C176.095 97.075 174.865 101.71 172.405 105.52C169.975 109.3 166.57 112.36 162.19 114.7Z" fill="#88646A"/>
<path d="M117.685 114.34C115.525 114.28 113.845 113.665 112.645 112.495C111.475 111.355 110.905 109.96 110.935 108.31C110.965 107.29 111.28 106.345 111.88 105.475C112.51 104.605 113.41 103.915 114.58 103.405C115.78 102.895 117.22 102.67 118.9 102.73C119.44 102.76 119.98 102.805 120.52 102.865C121.06 102.895 121.585 102.955 122.095 103.045V91.975H126.01V104.035C127.78 104.605 129.46 105.34 131.05 106.24C132.64 107.14 134.125 108.13 135.505 109.21C135.085 109.6 134.635 110.155 134.155 110.875C133.705 111.595 133.375 112.21 133.165 112.72C130.945 110.77 128.56 109.195 126.01 107.995C125.95 110.185 125.2 111.805 123.76 112.855C122.32 113.935 120.295 114.43 117.685 114.34ZM105.13 106.24C104.92 106.06 104.605 105.835 104.185 105.565C103.765 105.265 103.315 104.98 102.835 104.71C102.385 104.44 101.995 104.245 101.665 104.125C103.555 101.995 105.265 99.46 106.795 96.52C108.325 93.58 109.585 90.505 110.575 87.295C108.895 87.565 107.32 87.805 105.85 88.015C104.41 88.195 103.27 88.315 102.43 88.375L101.845 84.46C102.955 84.43 104.38 84.34 106.12 84.19C107.86 84.01 109.69 83.77 111.61 83.47C111.94 82.03 112.195 80.605 112.375 79.195C112.585 77.785 112.705 76.405 112.735 75.055L116.65 75.55C116.53 76.75 116.38 77.965 116.2 79.195C116.05 80.395 115.855 81.58 115.615 82.75C116.815 82.51 117.955 82.27 119.035 82.03C120.115 81.79 121.06 81.55 121.87 81.31L122.365 85.045C121.435 85.285 120.295 85.555 118.945 85.855C117.625 86.125 116.215 86.38 114.715 86.62C113.695 90.34 112.36 93.88 110.71 97.24C109.09 100.57 107.23 103.57 105.13 106.24ZM134.245 92.335C133.615 91.645 132.73 90.895 131.59 90.085C130.48 89.245 129.31 88.465 128.08 87.745C126.88 87.025 125.83 86.5 124.93 86.17L127 83.11C127.69 83.38 128.485 83.755 129.385 84.235C130.285 84.715 131.2 85.255 132.13 85.855C133.09 86.425 133.975 87.01 134.785 87.61C135.595 88.21 136.255 88.75 136.765 89.23L134.245 92.335ZM117.955 110.83C119.275 110.83 120.295 110.545 121.015 109.975C121.735 109.375 122.095 108.43 122.095 107.14V106.6C120.985 106.36 119.83 106.21 118.63 106.15C117.43 106.12 116.485 106.33 115.795 106.78C115.105 107.2 114.745 107.755 114.715 108.445C114.685 109.135 114.94 109.705 115.48 110.155C116.05 110.605 116.875 110.83 117.955 110.83Z" fill="#88646A"/>
<path d="M85.735 111.775C83.035 112.255 80.41 112.585 77.86 112.765C75.31 112.945 72.925 112.93 70.705 112.72C68.485 112.51 66.535 112.075 64.855 111.415C63.175 110.725 61.855 109.765 60.895 108.535C59.965 107.305 59.5 105.745 59.5 103.855C59.5 101.455 60.43 99.37 62.29 97.6C64.18 95.83 66.67 94.3 69.76 93.01C68.95 91.21 68.365 88.87 68.005 85.99C67.645 83.08 67.525 79.72 67.645 75.91H72.145C71.965 77.68 71.89 79.555 71.92 81.535C71.98 83.485 72.145 85.345 72.415 87.115C72.685 88.855 73.045 90.34 73.495 91.57C74.995 91.06 76.555 90.58 78.175 90.13C79.825 89.65 81.505 89.2 83.215 88.78L84.16 93.1C81.46 93.46 78.88 94 76.42 94.72C73.96 95.41 71.785 96.235 69.895 97.195C68.005 98.125 66.505 99.145 65.395 100.255C64.315 101.365 63.775 102.49 63.775 103.63C63.775 105.04 64.375 106.165 65.575 107.005C66.805 107.815 68.47 108.355 70.57 108.625C72.7 108.895 75.115 108.91 77.815 108.67C80.545 108.43 83.41 107.95 86.41 107.23C86.2 107.8 86.035 108.55 85.915 109.48C85.795 110.38 85.735 111.145 85.735 111.775Z" fill="#88646A"/>
<path d="M15.9 115.15C15.8333 114.517 15.7 113.717 15.5 112.75C15.3 111.817 15.0833 111.083 14.85 110.55H20.15C20.85 110.55 21.35 110.433 21.65 110.2C21.95 109.933 22.1 109.467 22.1 108.8V99.55H1.34998V95.15H22.1V88.9H5.44998V84.6H22.1V78.15C19.2 78.3833 16.3 78.5667 13.4 78.7C10.5 78.8333 7.73331 78.9 5.09998 78.9C4.99998 78.3333 4.83331 77.5833 4.59998 76.65C4.39998 75.7167 4.19998 75.0167 3.99998 74.55C6.16664 74.6167 8.51664 74.6333 11.05 74.6C13.5833 74.5333 16.1833 74.4 18.85 74.2C21.5166 74 24.1166 73.75 26.65 73.45C29.1833 73.15 31.5333 72.7833 33.7 72.35C35.8666 71.8833 37.7166 71.3667 39.25 70.8L42.15 74.7C40.05 75.3667 37.7 75.95 35.1 76.45C32.5333 76.9167 29.8333 77.3167 27 77.65V84.6H42.6V88.9H27V95.15H46.7V99.55H27V110.4C27 112.033 26.5333 113.233 25.6 114C24.7 114.767 23.3166 115.15 21.45 115.15H15.9Z" fill="#88646A"/>
<path d="M333.74 41.82C333.59 41.28 333.26 40.605 332.75 39.795C332.27 38.955 331.79 38.325 331.31 37.905C334.01 37.485 336.305 36.705 338.195 35.565C340.085 34.425 341.54 33.03 342.56 31.38C343.61 29.73 344.18 27.945 344.27 26.025C344.36 24.225 344.105 22.575 343.505 21.075C342.935 19.545 342.11 18.21 341.03 17.07C339.95 15.93 338.69 15.03 337.25 14.37C335.84 13.68 334.325 13.29 332.705 13.2C332.495 16.11 332.06 19.05 331.4 22.02C330.74 24.99 329.84 27.75 328.7 30.3C327.59 32.85 326.255 34.98 324.695 36.69C323.645 37.83 322.58 38.505 321.5 38.715C320.45 38.925 319.34 38.79 318.17 38.31C317.03 37.83 316.01 37.05 315.11 35.97C314.21 34.86 313.52 33.54 313.04 32.01C312.56 30.48 312.365 28.83 312.455 27.06C312.605 24.42 313.22 21.99 314.3 19.77C315.41 17.55 316.895 15.645 318.755 14.055C320.615 12.435 322.745 11.22 325.145 10.41C327.545 9.57 330.11 9.225 332.84 9.375C335 9.495 337.04 9.99 338.96 10.86C340.88 11.73 342.575 12.915 344.045 14.415C345.515 15.915 346.64 17.67 347.42 19.68C348.23 21.69 348.575 23.91 348.455 26.34C348.245 30.24 346.85 33.54 344.27 36.24C341.69 38.94 338.18 40.8 333.74 41.82ZM319.34 34.125C319.67 34.335 320.06 34.44 320.51 34.44C320.96 34.41 321.395 34.17 321.815 33.72C322.985 32.49 324.035 30.81 324.965 28.68C325.925 26.55 326.72 24.165 327.35 21.525C327.98 18.885 328.385 16.2 328.565 13.47C326.285 13.89 324.26 14.76 322.49 16.08C320.72 17.4 319.31 19.02 318.26 20.94C317.21 22.86 316.625 24.96 316.505 27.24C316.415 28.89 316.655 30.33 317.225 31.56C317.795 32.76 318.5 33.615 319.34 34.125Z" fill="#88646A"/>
<path d="M264.8 45.95C264.633 45.6833 264.383 45.3 264.05 44.8C263.717 44.3333 263.367 43.85 263 43.35C262.633 42.8833 262.3 42.5333 262 42.3C265.933 41.1 268.85 39.3 270.75 36.9C272.683 34.5 273.6 31.2833 273.5 27.25C271.567 28.6833 269.417 30.0167 267.05 31.25C264.717 32.45 262.3 33.4833 259.8 34.35C259.667 33.9833 259.45 33.55 259.15 33.05C258.883 32.5167 258.583 32.0167 258.25 31.55C257.95 31.0833 257.683 30.75 257.45 30.55C259.717 29.9833 261.917 29.2 264.05 28.2C266.183 27.2 268.167 26.05 270 24.75C271.833 23.4167 273.4 22.0333 274.7 20.6H264.4V1.79999H298.55V20.6H288.1C289.533 22.0667 291.25 23.4333 293.25 24.7C295.25 25.9333 297.317 26.9833 299.45 27.85C301.617 28.7167 303.65 29.35 305.55 29.75C305.15 30.2833 304.7 30.9667 304.2 31.8C303.7 32.6333 303.333 33.3667 303.1 34C301 33.3333 298.867 32.4833 296.7 31.45C294.567 30.4167 292.517 29.25 290.55 27.95V45.35H286V26.65H288.8C287.633 25.75 286.533 24.8 285.5 23.8C284.5 22.8 283.617 21.7333 282.85 20.6H279.9C279.167 21.7333 278.3 22.8167 277.3 23.85C276.333 24.85 275.25 25.8333 274.05 26.8L277.9 27.1C277.967 31.9333 276.867 35.8833 274.6 38.95C272.333 41.9833 269.067 44.3167 264.8 45.95ZM269.1 17H279.2V12.75H269.1V17ZM283.8 17H293.9V12.75H283.8V17ZM269.1 9.64999H279.2V5.39999H269.1V9.64999ZM283.8 9.64999H293.9V5.39999H283.8V9.64999Z" fill="#88646A"/>
<path d="M227.85 45.95V35.1C226.35 36.5 224.617 37.85 222.65 39.15C220.683 40.4167 218.633 41.5667 216.5 42.6C214.4 43.6333 212.333 44.4833 210.3 45.15C210.2 44.8833 210 44.5167 209.7 44.05C209.4 43.5833 209.083 43.1 208.75 42.6C208.417 42.1333 208.133 41.7833 207.9 41.55C209.767 41.0167 211.733 40.2833 213.8 39.35C215.867 38.3833 217.867 37.3167 219.8 36.15C221.767 34.95 223.467 33.7833 224.9 32.65H208.05V29.05H227.85V25.95H212.95V22.5H227.85V19.55H210.85V16H220.8C220.5 15.3333 220.183 14.65 219.85 13.95C219.517 13.25 219.183 12.6333 218.85 12.1H208V8.49999H216.4C215.967 7.63332 215.45 6.58332 214.85 5.34999C214.25 4.11666 213.667 3.13332 213.1 2.39999L217 0.549988C217.4 1.18332 217.833 1.93332 218.3 2.79999C218.767 3.66666 219.2 4.51666 219.6 5.34999C220.033 6.14999 220.35 6.79999 220.55 7.29999L217.75 8.49999H223.4V0.299988H227.65V8.49999H232.15V0.299988H236.4V8.49999H242.15L238.85 7.19999C239.283 6.63332 239.75 5.94999 240.25 5.14999C240.75 4.34999 241.217 3.54999 241.65 2.74999C242.083 1.91665 242.417 1.19999 242.65 0.599987L246.9 1.94999C246.567 2.58332 246.15 3.31665 245.65 4.14999C245.15 4.94999 244.65 5.74999 244.15 6.54999C243.65 7.31665 243.2 7.96666 242.8 8.49999H251.95V12.1H241.05C240.817 12.7333 240.533 13.4 240.2 14.1C239.867 14.7667 239.55 15.4 239.25 16H248.8V19.55H232.15V22.5H246.9V25.95H232.15V29.05H251.95V32.65H235C236.467 33.7833 238.15 34.9333 240.05 36.1C241.983 37.2333 243.983 38.2833 246.05 39.25C248.117 40.2167 250.067 40.9667 251.9 41.5C251.667 41.7333 251.383 42.0833 251.05 42.55C250.75 43.05 250.467 43.5333 250.2 44C249.933 44.5 249.733 44.8833 249.6 45.15C247.6 44.4833 245.533 43.6333 243.4 42.6C241.3 41.5667 239.283 40.4167 237.35 39.15C235.417 37.85 233.683 36.5167 232.15 35.15V45.95H227.85ZM225.6 16H234.4C234.7 15.4333 235.017 14.8 235.35 14.1C235.683 13.4 235.983 12.7333 236.25 12.1H223.85C224.183 12.7667 224.5 13.45 224.8 14.15C225.133 14.85 225.4 15.4667 225.6 16Z" fill="#88646A"/>
<path d="M170.45 44.1V39.95H177.2V12.4H181.7V39.95H186.55V0.650012H191.15V17.35H199.65V21.7H191.15V39.95H201.45V44.1H170.45ZM163.55 45.55V26.5C161.617 28.3667 159.55 30.1 157.35 31.7C157.183 31.4 156.9 31.0333 156.5 30.6C156.133 30.1333 155.75 29.6833 155.35 29.25C154.983 28.8167 154.65 28.5 154.35 28.3C155.717 27.4333 157.117 26.4 158.55 25.2C159.983 24 161.35 22.7 162.65 21.3C163.983 19.9 165.183 18.5 166.25 17.1C167.35 15.7 168.233 14.3667 168.9 13.1H156.5V9.20001H163.45V0.200012H167.85V9.20001H173.4L175 10.7C174.2 12.4667 173.267 14.1833 172.2 15.85C171.167 17.5167 170.033 19.1333 168.8 20.7C169.967 21.5333 171.267 22.4 172.7 23.3C174.167 24.1667 175.383 24.85 176.35 25.35C176.083 25.6167 175.767 26 175.4 26.5C175.067 26.9667 174.733 27.4333 174.4 27.9C174.1 28.3667 173.867 28.75 173.7 29.05C172.933 28.55 172.033 27.95 171 27.25C169.967 26.55 168.95 25.8167 167.95 25.05V45.55H163.55Z" fill="#88646A"/>
<path d="M111.55 45.55V26.6C110.617 27.4667 109.667 28.3167 108.7 29.15C107.733 29.95 106.733 30.7333 105.7 31.5C105.533 31.2 105.25 30.8333 104.85 30.4C104.483 29.9333 104.1 29.4833 103.7 29.05C103.3 28.6167 102.967 28.3 102.7 28.1C104.533 26.9333 106.367 25.5 108.2 23.8C110.067 22.1 111.767 20.3167 113.3 18.45C114.833 16.55 116.05 14.7667 116.95 13.1H104.55V9.20001H111.5V0.200012H115.9V9.20001H121.4L123.05 10.7C122.217 12.5 121.283 14.2333 120.25 15.9C119.217 17.5667 118.1 19.1667 116.9 20.7C117.9 21.4333 119.017 22.1833 120.25 22.95C121.483 23.6833 122.567 24.3333 123.5 24.9V24.15H148V44.7H123.5V26.4C122.7 27.4333 122.117 28.3167 121.75 29.05C120.95 28.55 120.033 27.95 119 27.25C118 26.55 116.983 25.8167 115.95 25.05V45.55H111.55ZM125.55 20.75V8.90001H145.85V20.75H125.55ZM122.15 5.85001V2.00001H149.1V5.85001H122.15ZM129.8 17.3H141.65V12.35H129.8V17.3ZM127.75 41.1H133.75V35.9H127.75V41.1ZM137.8 41.1H143.8V35.9H137.8V41.1ZM127.75 32.7H133.75V27.75H127.75V32.7ZM137.8 32.7H143.8V27.75H137.8V32.7Z" fill="#88646A"/>
<path d="M74.75 45.8C74.7167 45.2333 74.6 44.55 74.4 43.75C74.2333 42.9833 74.05 42.3667 73.85 41.9H76.9C77.5667 41.9 78.0333 41.8 78.3 41.6C78.6 41.3667 78.75 40.9333 78.75 40.3V34.95H70.5V25.5C69.8 26.0333 69.0667 26.5667 68.3 27.1C67.5333 27.6 66.75 28.1 65.95 28.6C65.7167 28.2333 65.3667 27.7833 64.9 27.25C64.4333 26.7167 64 26.2833 63.6 25.95C63.2667 29.8833 62.5 33.4333 61.3 36.6C60.1333 39.7667 58.5 42.55 56.4 44.95C56.0333 44.6167 55.4833 44.2 54.75 43.7C54.0167 43.2333 53.4 42.9167 52.9 42.75C54.8333 40.6833 56.3 38.3167 57.3 35.65C58.3333 32.9833 59.0167 29.9667 59.35 26.6C58.4167 27.1333 57.3667 27.6833 56.2 28.25C55.0333 28.8167 54.0167 29.2833 53.15 29.65L51.75 25.4C52.45 25.1333 53.2833 24.8167 54.25 24.45C55.2167 24.05 56.1833 23.65 57.15 23.25C58.15 22.8167 58.9667 22.4333 59.6 22.1V4.44999H75.8V0.149994H80.35V4.44999H97.15V8.19999H63.8V20.7C63.8 21.5333 63.7833 22.3833 63.75 23.25C63.7167 24.0833 63.6667 24.9 63.6 25.7C65.8667 24.4333 67.8667 23.0167 69.6 21.45C68.9667 20.8833 68.3333 20.35 67.7 19.85C67.0667 19.3167 66.4333 18.8333 65.8 18.4L68.15 16C68.7167 16.4 69.35 16.8833 70.05 17.45C70.75 17.9833 71.4 18.5167 72 19.05C72.5333 18.4833 73.0167 17.8833 73.45 17.25C73.9167 16.6167 74.35 15.9833 74.75 15.35H64.8V11.9H76.5C76.7667 11.3333 76.9833 10.75 77.15 10.15C77.35 9.54999 77.5167 8.93333 77.65 8.29999L81.6 8.94999C81.4667 9.44999 81.3167 9.94999 81.15 10.45C80.9833 10.95 80.8167 11.4333 80.65 11.9H97V15.35H85.5C86.0667 16.0833 86.6667 16.7833 87.3 17.45C87.9333 18.0833 88.6 18.7 89.3 19.3C90.5 18.2 91.6333 16.9833 92.7 15.65L95.65 17.75C95.15 18.2833 94.5833 18.8667 93.95 19.5C93.3167 20.1333 92.6667 20.7333 92 21.3C94.2667 22.8333 96.6667 24.0667 99.2 25C98.8333 25.2667 98.4 25.7667 97.9 26.5C97.4333 27.2333 97.0667 27.8333 96.8 28.3C95.7667 27.8333 94.75 27.3333 93.75 26.8C92.75 26.2667 91.7833 25.6833 90.85 25.05V34.95H82.8V41.5C82.8 44.3667 81.15 45.8 77.85 45.8H74.75ZM95.45 44.95C93.7167 44.1833 91.9667 43.1833 90.2 41.95C88.4333 40.6833 86.9167 39.45 85.65 38.25L88.4 35.65C89.6 36.7833 91.0833 37.9 92.85 39C94.6167 40.0667 96.2833 40.9167 97.85 41.55C97.45 41.8833 96.9833 42.4333 96.45 43.2C95.95 43.9667 95.6167 44.55 95.45 44.95ZM65.85 44.95C65.75 44.6833 65.55 44.3167 65.25 43.85C64.9833 43.4167 64.6833 42.9667 64.35 42.5C64.0167 42.0667 63.7167 41.75 63.45 41.55C65.05 40.8833 66.7167 40.0333 68.45 39C70.1833 37.9667 71.6667 36.85 72.9 35.65L75.65 38.25C74.3167 39.55 72.7833 40.8 71.05 42C69.35 43.1667 67.6167 44.15 65.85 44.95ZM55.85 19.85C55.5833 19.15 55.2 18.3167 54.7 17.35C54.2333 16.35 53.7333 15.3667 53.2 14.4C52.7 13.4 52.2167 12.5667 51.75 11.9L55.15 10.1C55.55 10.7 56.0167 11.4667 56.55 12.4C57.0833 13.3333 57.6 14.3 58.1 15.3C58.6333 16.3 59.0667 17.2 59.4 18C59.1333 18.1 58.7667 18.2833 58.3 18.55C57.8333 18.7833 57.3667 19.0167 56.9 19.25C56.4667 19.4833 56.1167 19.6833 55.85 19.85ZM75.35 20.95H85.75C84.05 19.3167 82.5333 17.45 81.2 15.35H79.15C78.6167 16.3833 78.0333 17.3667 77.4 18.3C76.7667 19.2 76.0833 20.0833 75.35 20.95ZM74.8 31.75H86.55V29.2H74.8V31.75ZM74.8 26.45H86.55V24.05H74.8V26.45Z" fill="#88646A"/>
<path d="M3.44995 44.15V2.14999H45.55V6.2H7.94995V39.9H45.95V44.15H3.44995ZM12 38.85C11.9 38.4833 11.7166 38.05 11.45 37.55C11.2166 37.0167 10.9666 36.5167 10.7 36.05C10.4333 35.55 10.2 35.2 9.99995 35C13.6666 34.3333 16.6 33.2667 18.8 31.8C21.0333 30.3 22.6166 28.3 23.55 25.8H9.99995V21.85H24.45C24.5166 21.3833 24.5666 20.9 24.6 20.4C24.6333 19.9 24.65 19.3833 24.65 18.85V15.85H17.95C16.75 17.65 15.4 19.25 13.9 20.65C13.6333 20.45 13.2666 20.2 12.8 19.9C12.3333 19.5667 11.8666 19.25 11.4 18.95C10.9333 18.65 10.5333 18.45 10.2 18.35C11.2333 17.4833 12.2666 16.35 13.3 14.95C14.3333 13.5167 15.25 12.0333 16.05 10.5C16.8833 8.93333 17.4666 7.53333 17.8 6.29999L22 7.55C21.5666 8.95 20.9833 10.3833 20.25 11.85H41.1V15.85H29V18.85C29 19.35 28.9833 19.85 28.95 20.35C28.95 20.85 28.9333 21.35 28.9 21.85H44V25.8H29.9C31.3333 28 33.1833 29.8667 35.45 31.4C37.75 32.9333 40.4166 34.0667 43.45 34.8C43.25 35.0667 42.9833 35.4667 42.65 36C42.35 36.5333 42.0499 37.0667 41.75 37.6C41.4833 38.1333 41.3166 38.55 41.25 38.85C38.1833 37.9833 35.45 36.6667 33.05 34.9C30.6833 33.1 28.7166 30.95 27.15 28.45C25.95 30.9833 24.1166 33.1167 21.65 34.85C19.1833 36.55 15.9666 37.8833 12 38.85Z" fill="#88646A"/>
</svg>
