<svg width="60" height="65" viewBox="0 0 60 65" fill="none" xmlns="http://www.w3.org/2000/svg">
<path d="M32 52.5C20.5001 56 11.3001 50.5 11.3001 50.5C11.3001 50.5 8.68337 54.3601 5.5001 62C4.77611 63.7376 3.5001 64.95 2.0001 64.2C-1.4999 62.5 2.6001 56.9 3.3001 55C5.53229 50.8146 10.5001 43 19.0001 34C27.5001 25 40.3 17 40.3 17C40.3 17 35.5 18 25.4 24.5C15.3 31 4.90006 45.5 4.90006 45.5C4.90006 45.5 1.8 43 0.9 33C0.510516 26.5086 3.5712 19.3127 8.50004 15C16.5 8 28.4914 5.9359 39.5 4.5C51 3 59.3 0.300049 59.3 0.300049C59.3 0.300049 55.8602 17.6021 53 27C49.1956 39.5 43.4999 49 32 52.5Z" fill="#88646A"/>
</svg>
