<svg width="82" height="66" viewBox="0 0 82 66" fill="none" xmlns="http://www.w3.org/2000/svg">
<ellipse cx="41.4996" cy="12" rx="12.5" ry="12" fill="#88646A"/>
<ellipse cx="68.4996" cy="18" rx="9.5" ry="9" fill="#88646A"/>
<ellipse cx="14.4996" cy="18" rx="9.5" ry="9" fill="#88646A"/>
<path d="M19.9996 42C19.9996 34.268 26.2676 28 33.9996 28H47.9996C55.7316 28 61.9996 34.268 61.9996 42V57C61.9996 61.9706 57.9702 66 52.9996 66H28.9996C24.0291 66 19.9996 61.9706 19.9996 57V42Z" fill="#88646A"/>
<path d="M65.0004 31H72.0004C77.5232 31 82.0004 35.4772 82.0004 41V52C82.0004 56.4183 78.4186 60 74.0004 60H67.0004C65.8958 60 64.9997 59.1046 64.9997 58L64.9996 37L62.4996 32V31.5V31H65.0004Z" fill="#88646A"/>
<path d="M16.999 31H9.99926C4.47662 31 -0.000366211 35.4772 -0.000366211 41V52C-0.000366211 56.4183 3.58122 60 7.99934 60H14.9991C16.1036 60 16.9996 59.1046 16.9996 58L16.9997 37L19.4996 32V31.5V31H16.999Z" fill="#88646A"/>
</svg>
