<svg width="82" height="67" viewBox="0 0 82 67" fill="none" xmlns="http://www.w3.org/2000/svg">
<path d="M6.51382 52.4056C7.46564 52.5638 42.913 52.5638 42.913 52.5638L41.0132 56.9978H7.62095C5.40535 56.9978 0.499876 56.2065 0.5 50.351C0.500124 44.4955 0.65828 11.1032 0.658254 6.19725C0.658228 1.29129 3.03208 0.5 5.56486 0.5H67.601C71.3992 0.5 72.3488 3.66514 72.3488 5.56423V23.761L67.9176 27.7174V14.5821H4.93125V50.823C4.93125 51.456 5.562 52.2473 6.51382 52.4056Z" fill="#88646A"/>
<path d="M45.6026 54.7822L42.9123 62.2203C42.121 63.9611 40.8549 67.601 44.8114 66.1767L53.0407 63.1698C55.5728 62.2203 56.0476 61.429 56.9972 60.4794L73.6142 43.5459C74.8802 42.2799 75.0385 42.2799 73.7724 41.1721L67.1256 35C65.7013 33.5757 65.8596 33.734 64.4352 35.1583L48.1348 51.1423C46.5522 52.7248 46.3939 52.5666 45.6026 54.7822Z" fill="#88646A"/>
<path d="M68.5499 31.0436C67.7586 31.8349 67.7586 31.8349 68.7082 32.7844L75.1967 38.7982C75.8297 39.4312 76.4628 40.2225 77.0958 39.7478L80.2609 36.4244C81.2105 35.3166 81.527 33.101 79.4697 31.2019L76.9375 28.6698C75.988 27.7174 73.4559 26.1376 71.2403 28.3532L68.5499 31.0436Z" fill="#88646A"/>
<path d="M65.7188 33.5146C66.083 33.4693 66.3792 33.6462 66.6133 33.8301C66.8504 34.0164 67.1335 34.3005 67.4795 34.6465L74.1016 40.7959L74.5254 41.1777C74.6509 41.2969 74.7595 41.4089 74.8467 41.5156C75.0255 41.7345 75.1853 42.0165 75.1387 42.3662C75.0972 42.6759 74.9032 42.9274 74.7256 43.1279C74.5392 43.3383 74.2712 43.596 73.9678 43.8994L57.3545 60.8301L57.3506 60.833C56.9151 61.2685 56.5055 61.7584 55.9209 62.2178C55.3165 62.6926 54.5159 63.1502 53.2158 63.6377L53.2119 63.6396L44.9834 66.6465L44.9805 66.6475C43.9638 67.0134 43.1525 67.1069 42.5508 66.8691C41.884 66.6055 41.6316 66.01 41.583 65.4268C41.5357 64.8588 41.6658 64.2135 41.8398 63.6299C42.0141 63.0455 42.2462 62.4773 42.4473 62.0332L45.1328 54.6123C45.529 53.503 45.788 52.922 46.1768 52.4189C46.3678 52.1718 46.5823 51.9532 46.835 51.708C47.0925 51.4582 47.3889 51.1814 47.7812 50.7891L47.7842 50.7852L64.085 34.8018C64.4186 34.468 64.7016 34.1649 64.916 33.9658C65.1233 33.7733 65.3862 33.5562 65.7188 33.5146ZM65.834 34.5107C65.8093 34.5232 65.7398 34.5663 65.5967 34.6992C65.3964 34.8852 65.166 35.1347 64.7891 35.5117L64.7852 35.5156L48.4873 51.4951L48.4883 51.4961C48.0898 51.8946 47.7731 52.1912 47.5312 52.4258C47.2846 52.6651 47.1129 52.8425 46.9678 53.0303C46.6841 53.3973 46.4679 53.8451 46.0732 54.9502V54.9521L43.3828 62.3906L43.376 62.4092L43.3672 62.4268C43.1748 62.8501 42.9572 63.3818 42.7979 63.916C42.6356 64.4599 42.5483 64.9622 42.5801 65.3438C42.6106 65.71 42.7341 65.8668 42.918 65.9395C43.1668 66.0378 43.6806 66.052 44.6416 65.7061L52.8652 62.7012L53.3027 62.5303C54.2695 62.1364 54.8632 61.7777 55.3037 61.4316C55.8268 61.0207 56.1296 60.64 56.6436 60.126L73.2568 43.1953L73.2607 43.1924C73.5903 42.8629 73.8168 42.6451 73.9766 42.4648C74.0872 42.34 74.126 42.2732 74.1396 42.2461C74.1301 42.2281 74.1112 42.1961 74.0723 42.1484C73.96 42.0111 73.7659 41.8311 73.4434 41.5488L73.4375 41.5439L73.4326 41.5381L66.7852 35.3662L66.7783 35.3604L66.7725 35.3535C66.4066 34.9877 66.1744 34.7573 65.9961 34.6172C65.9065 34.5468 65.8561 34.5199 65.834 34.5107ZM71.8486 5.56445C71.8486 4.68259 71.6258 3.52535 70.9883 2.60449C70.3695 1.71078 69.3357 1 67.6006 1H5.56445C4.3322 1.00004 3.26289 1.19671 2.49414 1.88184C1.73504 2.55836 1.15819 3.81378 1.1582 6.19727C1.15822 8.65161 1.11865 18.2277 1.0791 27.9199C1.03955 37.6136 1.00007 47.4237 1 50.3506C0.999941 53.1088 2.13944 54.6086 3.49219 55.4453C4.88238 56.3051 6.55569 56.498 7.62109 56.498H40.6836L42.1553 53.0635C41.9407 53.0634 41.6835 53.0636 41.3877 53.0635C40.4166 53.0632 39.0283 53.0628 37.3594 53.0615C34.0212 53.0591 29.56 53.0538 25.0693 53.0439C20.5788 53.0341 16.0577 53.0193 12.5996 52.9971C10.8707 52.9859 9.4061 52.9732 8.34375 52.958C7.81292 52.9504 7.38068 52.9424 7.06543 52.9336C6.77344 52.9255 6.53409 52.9155 6.43164 52.8984C5.83953 52.7999 5.34643 52.5044 5 52.1328C4.66037 51.7685 4.43173 51.2965 4.43164 50.8232V14.082H68.418V26.6006L71.8486 23.5361V5.56445ZM70.8867 28C72.1278 26.7589 73.4957 26.5641 74.6758 26.8359C75.8219 27.1 76.7724 27.7953 77.292 28.3164L79.8086 30.834C82.0599 32.9121 81.7684 35.4342 80.6406 36.75L80.623 36.7695L77.458 40.0928L77.4287 40.123L77.3955 40.1475C77.1418 40.3377 76.8582 40.4177 76.5664 40.3857C76.2936 40.3558 76.056 40.233 75.8633 40.1006C75.5023 39.8524 75.1354 39.4453 74.8564 39.165L68.3682 33.1514L68.3545 33.1377C68.1246 32.9078 67.9266 32.7108 67.7871 32.543C67.6543 32.3831 67.5031 32.1689 67.4785 31.9004C67.4518 31.6066 67.5844 31.376 67.71 31.2119C67.8314 31.0531 68.0089 30.8778 68.1963 30.6904L70.8867 28ZM74.4512 27.8105C73.574 27.6085 72.5681 27.7327 71.5938 28.707L68.9033 31.3975C68.6956 31.6052 68.5763 31.7261 68.5049 31.8193C68.5034 31.8213 68.5014 31.8234 68.5 31.8252C68.5132 31.8441 68.5297 31.8709 68.5566 31.9033C68.6593 32.0269 68.8166 32.1858 69.0605 32.4297L75.5361 38.4316L75.5439 38.4375L75.5498 38.4443C75.9023 38.7969 76.1634 39.0933 76.4297 39.2764C76.5533 39.3613 76.6324 39.3869 76.6758 39.3916C76.697 39.3939 76.7234 39.3931 76.7705 39.3633L79.8848 36.0928C80.6528 35.1908 80.9903 33.2859 79.1309 31.5693L79.123 31.5625L76.583 29.0225C76.1529 28.5913 75.3621 28.0205 74.4512 27.8105ZM72.8486 23.9854L72.6816 24.1338L67.418 28.834V15.082H5.43164V50.8232C5.43174 50.9829 5.51804 51.2223 5.73145 51.4512C5.93827 51.673 6.23616 51.8523 6.5957 51.9121C6.59875 51.9123 6.63486 51.9164 6.72656 51.9209C6.81647 51.9253 6.93936 51.9293 7.09375 51.9336C7.40224 51.9422 7.82918 51.9504 8.3584 51.958C9.41675 51.9731 10.8784 51.9859 12.6064 51.9971C16.0623 52.0193 20.5813 52.0341 25.0713 52.0439C29.5612 52.0538 34.0215 52.0591 37.3594 52.0615C39.0281 52.0628 40.4167 52.0632 41.3877 52.0635H43.6709L43.373 52.7607L41.3428 57.498H7.62109C6.47098 57.498 4.58313 57.2954 2.9668 56.2959C1.31299 55.2731 -6.57296e-05 53.4478 2.46783e-09 50.3506C6.55006e-05 47.421 0.0395555 37.608 0.0791016 27.916C0.118657 18.2218 0.158216 8.64892 0.158203 6.19727C0.15819 3.67482 0.768117 2.08136 1.8291 1.13574C2.88028 0.198906 4.26423 4.12871e-05 5.56445 0H67.6006C69.6637 0 71.0049 0.871529 71.8105 2.03516C72.5974 3.17163 72.8486 4.54724 72.8486 5.56445V23.9854Z" fill="#88646A"/>
<path d="M7.46265 7.62179C7.46265 8.80632 8.33546 9.67914 9.51999 9.67914C10.7045 9.67914 11.5773 8.80632 11.5773 7.62179C11.5773 6.43727 10.7045 5.56445 9.51999 5.56445C8.33546 5.56445 7.46265 6.43727 7.46265 7.62179Z" fill="#FF9B9B"/>
<path d="M11.0769 7.62207C11.0769 6.71378 10.4285 6.06458 9.52026 6.06445C8.61188 6.06445 7.96265 6.71368 7.96265 7.62207C7.96278 8.53031 8.61197 9.17871 9.52026 9.17871C10.4284 9.17858 11.0768 8.53022 11.0769 7.62207ZM12.0769 7.62207C12.0768 9.08251 10.9807 10.1786 9.52026 10.1787C8.05968 10.1787 6.96278 9.0826 6.96265 7.62207C6.96265 6.1614 8.05959 5.06445 9.52026 5.06445C10.9808 5.06459 12.0769 6.16149 12.0769 7.62207Z" fill="#FF9B9B"/>
<path d="M23.605 7.62179C23.605 8.80632 24.4778 9.67914 25.6623 9.67914C26.8469 9.67914 27.7197 8.80632 27.7197 7.62179C27.7197 6.43727 26.8469 5.56445 25.6623 5.56445C24.4778 5.56445 23.605 6.43727 23.605 7.62179Z" fill="#FF9B9B"/>
<path d="M27.2192 7.62207C27.2192 6.71378 26.5708 6.06458 25.6626 6.06445C24.7542 6.06445 24.105 6.71368 24.105 7.62207C24.1051 8.53031 24.7543 9.17871 25.6626 9.17871C26.5707 9.17858 27.2191 8.53022 27.2192 7.62207ZM28.2192 7.62207C28.2191 9.08251 27.123 10.1786 25.6626 10.1787C24.202 10.1787 23.1051 9.0826 23.105 7.62207C23.105 6.1614 24.2019 5.06445 25.6626 5.06445C27.1231 5.06459 28.2192 6.16149 28.2192 7.62207Z" fill="#FF9B9B"/>
<path d="M15.3755 7.62179C15.3755 8.80632 16.2483 9.67914 17.4328 9.67914C18.6174 9.67914 19.4902 8.80632 19.4902 7.62179C19.4902 6.43727 18.6174 5.56445 17.4328 5.56445C16.2483 5.56445 15.3755 6.43727 15.3755 7.62179Z" fill="#FF9B9B"/>
<path d="M18.9897 7.62207C18.9897 6.71378 18.3413 6.06458 17.4331 6.06445C16.5247 6.06445 15.8755 6.71368 15.8755 7.62207C15.8756 8.53031 16.5248 9.17871 17.4331 9.17871C18.3413 9.17858 18.9896 8.53022 18.9897 7.62207ZM19.9897 7.62207C19.9896 9.08251 18.8935 10.1786 17.4331 10.1787C15.9725 10.1787 14.8756 9.0826 14.8755 7.62207C14.8755 6.1614 15.9724 5.06445 17.4331 5.06445C18.8936 5.06459 19.9897 6.16149 19.9897 7.62207Z" fill="#FF9B9B"/>
</svg>
